<?xml version="1.0" encoding="utf-8"?>
<!-- Generator: Adobe Illustrator 25.4.1, SVG Export Plug-In . SVG Version: 6.00 Build 0)  -->
<svg version="1.1" id="圖層_1" xmlns="http://www.w3.org/2000/svg" xmlns:xlink="http://www.w3.org/1999/xlink" x="0px" y="0px"
	 viewBox="0 0 100 100" style="enable-background:new 0 0 100 100;" xml:space="preserve">
<style type="text/css">
	.st0{fill:none;stroke:#29ABE2;stroke-width:1.2;stroke-linecap:round;stroke-miterlimit:10;}
	.st1{fill:none;stroke:#29ABE2;stroke-width:1.2;stroke-linecap:round;stroke-miterlimit:10;stroke-dasharray:4.5774,4.5774;}
</style>
<g>
	<path class="st0" d="M74.99,63.33c1.98-3.73,6.19-5.35,9.39-3.65l3.37-6.32c0.7-1.31,0.21-2.95-1.11-3.65L29.82,19.41
		c-1.31-0.7-2.95-0.21-3.65,1.11l-3.37,6.32c3.2,1.71,4.19,6.11,2.2,9.84c-1.98,3.73-6.19,5.35-9.39,3.65l-3.37,6.32
		c-0.7,1.31-0.21,2.95,1.11,3.65l56.83,30.3c1.31,0.7,2.95,0.21,3.65-1.11l3.37-6.32C73.99,71.46,73.01,67.05,74.99,63.33z"/>
	<g>
		<g>
			<line class="st0" x1="71.72" y1="46.35" x2="70.78" y2="48.12"/>
			<line class="st1" x1="68.63" y1="52.15" x2="61.09" y2="66.29"/>
			<line class="st0" x1="60.01" y1="68.31" x2="59.07" y2="70.07"/>
		</g>
	</g>
	<circle class="st0" cx="42.1" cy="45.79" r="10.18"/>
</g>
</svg>
