<?xml version="1.0" encoding="utf-8"?>
<!-- Generator: Adobe Illustrator 25.4.1, SVG Export Plug-In . SVG Version: 6.00 Build 0)  -->
<svg version="1.1" id="圖層_1" xmlns="http://www.w3.org/2000/svg" xmlns:xlink="http://www.w3.org/1999/xlink" x="0px" y="0px"
	 viewBox="0 0 100 100" style="enable-background:new 0 0 100 100;" xml:space="preserve">
<style type="text/css">
	.st0{fill:none;stroke:#4C4C4D;stroke-width:1.2;stroke-linecap:round;stroke-miterlimit:10;}
</style>
<path class="st0" d="M82.39,50c0,9.52-4.12,18.09-10.65,24.02c-5.75,5.19-13.37,8.36-21.74,8.36c-8.37,0-15.98-3.17-21.73-8.36
	C21.73,68.09,17.61,59.52,17.61,50c0-17.89,14.51-32.38,32.38-32.38C67.88,17.62,82.39,32.11,82.39,50z"/>
<g>
	<g>
		<path class="st0" d="M33.34,46.94c0.19-0.31,0.47-0.43,0.83-0.48c0.62-0.08,1.24-0.19,1.86-0.31c0.13-0.03,0.3-0.14,0.35-0.26
			c0.38-0.87,0.74-1.75,1.09-2.64c0.04-0.11,0.02-0.3-0.05-0.4c-0.38-0.55-0.79-1.09-1.18-1.64c-0.32-0.44-0.3-0.71,0.07-1.09
			c1.27-1.28,2.54-2.55,3.82-3.82c0.38-0.38,0.65-0.4,1.09-0.08c0.55,0.39,1.09,0.78,1.63,1.19c0.15,0.11,0.27,0.12,0.44,0.05
			c0.87-0.37,1.74-0.72,2.6-1.09c0.12-0.05,0.24-0.21,0.26-0.34c0.13-0.67,0.22-1.35,0.33-2.02c0.08-0.48,0.3-0.67,0.79-0.68
			c1.81,0,3.62,0,5.43,0c0.5,0,0.73,0.2,0.81,0.7c0.11,0.67,0.21,1.35,0.33,2.02c0.02,0.12,0.14,0.27,0.25,0.31
			c0.87,0.38,1.75,0.74,2.64,1.09c0.11,0.04,0.3,0.01,0.4-0.05c0.55-0.38,1.09-0.79,1.64-1.18c0.44-0.32,0.71-0.3,1.09,0.07
			c1.28,1.27,2.55,2.54,3.82,3.82c0.38,0.38,0.39,0.65,0.08,1.09c-0.39,0.55-0.8,1.08-1.18,1.64c-0.07,0.1-0.1,0.29-0.06,0.4
			c0.35,0.89,0.71,1.77,1.1,2.64c0.05,0.12,0.21,0.24,0.34,0.26c0.67,0.13,1.35,0.22,2.02,0.33c0.48,0.08,0.67,0.3,0.68,0.79
			c0,1.81,0,3.62,0,5.43c0,0.5-0.2,0.73-0.7,0.81c-0.67,0.11-1.35,0.21-2.02,0.33c-0.12,0.02-0.27,0.14-0.31,0.25
			c-0.38,0.87-0.74,1.75-1.09,2.64c-0.04,0.11-0.01,0.3,0.05,0.4c0.38,0.55,0.79,1.09,1.18,1.64c0.32,0.44,0.3,0.71-0.07,1.09
			c-1.27,1.28-2.54,2.55-3.82,3.82c-0.38,0.38-0.65,0.39-1.09,0.08c-0.55-0.39-1.08-0.8-1.64-1.18c-0.1-0.07-0.29-0.1-0.4-0.06
			c-0.89,0.35-1.77,0.71-2.64,1.1c-0.12,0.05-0.24,0.21-0.26,0.34c-0.13,0.65-0.23,1.3-0.32,1.96c-0.05,0.36-0.2,0.61-0.54,0.74
			c-2.02,0-4.04,0-6.05,0c-0.31-0.19-0.43-0.47-0.48-0.83c-0.08-0.62-0.21-1.24-0.29-1.86c-0.03-0.21-0.12-0.3-0.3-0.37
			c-0.86-0.35-1.73-0.7-2.58-1.07c-0.19-0.08-0.31-0.05-0.47,0.06c-0.53,0.4-1.07,0.78-1.6,1.17c-0.45,0.32-0.71,0.3-1.11-0.09
			c-1.26-1.26-2.52-2.51-3.77-3.77c-0.41-0.41-0.42-0.66-0.08-1.14c0.39-0.54,0.78-1.07,1.16-1.61c0.07-0.1,0.1-0.29,0.06-0.4
			c-0.35-0.89-0.71-1.77-1.1-2.64c-0.05-0.12-0.22-0.24-0.34-0.26c-0.65-0.12-1.3-0.23-1.96-0.32c-0.36-0.05-0.61-0.2-0.74-0.54
			C33.34,50.98,33.34,48.96,33.34,46.94z"/>
		<circle class="st0" cx="50" cy="50" r="6.87"/>
	</g>
</g>
</svg>
