<svg width="100" height="100" viewBox="0 0 100 100" fill="none" xmlns="http://www.w3.org/2000/svg">
<path d="M45.8472 61.3796V60.3124C45.8472 57.6328 45.8472 54.9648 45.8356 52.2852C47.4132 50.9628 48.9792 49.6288 50.5336 48.2948C51.8096 47.2044 53.0972 46.114 54.3732 45.0352C55.9508 43.7012 56.7744 41.9612 56.7628 40.0124C56.728 36.6484 53.9672 33.876 50.58 33.8528C47.2624 33.8528 44.5132 36.4164 44.2812 39.6296H34.92C34.92 39.5136 34.9316 39.386 34.9316 39.27C35.3608 31.5328 41.2768 25.35 49.0024 24.5612C49.1532 24.5496 49.304 24.5148 49.4548 24.48H51.6936C52.0068 24.538 52.32 24.596 52.6216 24.6424C53.3756 24.77 54.0948 24.8976 54.7676 25.0832C60.9736 26.8116 65.5092 32.252 66.0544 38.6436C66.4952 43.852 64.8132 48.1324 60.9156 51.7284C60.0572 52.5172 59.164 53.2712 58.2244 54.06C57.5748 54.6052 56.9252 55.1504 56.2988 55.7072C55.6492 56.2756 55.2432 57.1688 55.22 58.0388C55.1968 59.1408 55.1968 60.2544 55.1968 61.368H45.8472V61.3796Z" stroke="#4C4C4D" stroke-width="1.16" stroke-miterlimit="10" stroke-linecap="round"/>
<path d="M50.4292 76.1581C48.9212 76.1581 47.4828 75.5549 46.404 74.4761C45.3252 73.3857 44.722 71.9589 44.7336 70.4277C44.7452 67.2957 47.2856 64.7553 50.4176 64.7437C53.5728 64.7437 56.1364 67.2957 56.1364 70.4393C56.1364 71.9589 55.5448 73.3857 54.466 74.4761C53.3756 75.5549 51.9488 76.1581 50.4292 76.1581Z" stroke="#4C4C4D" stroke-width="1.16" stroke-miterlimit="10" stroke-linecap="round"/>
</svg>
