<?xml version="1.0" encoding="utf-8"?>
<!-- Generator: Adobe Illustrator 25.4.1, SVG Export Plug-In . SVG Version: 6.00 Build 0)  -->
<svg version="1.1" id="圖層_1" xmlns="http://www.w3.org/2000/svg" xmlns:xlink="http://www.w3.org/1999/xlink" x="0px" y="0px"
	 viewBox="0 0 100 100" style="enable-background:new 0 0 100 100;" xml:space="preserve">
<style type="text/css">
	.st0{fill:none;stroke:#29ABE2;stroke-width:1.2;stroke-linecap:round;stroke-miterlimit:10;}
	.st1{fill:#29ABE2;}
</style>
<g>
	<circle class="st0" cx="66.14" cy="58.14" r="17.7"/>
	<g>
		<path class="st1" d="M68.52,63.32c-0.44,0.35-0.97,0.58-1.6,0.67c-0.63,0.09-1.31,0.05-2.02-0.13l-0.34,1.09
			c-0.04,0.13-0.12,0.23-0.25,0.3s-0.26,0.07-0.4,0.03c-0.13-0.04-0.24-0.12-0.3-0.24c-0.07-0.12-0.08-0.25-0.03-0.39l0.34-1.09
			c-1.08-0.41-2.04-0.98-2.9-1.7c-0.11-0.09-0.19-0.21-0.24-0.36s-0.05-0.29-0.01-0.43c0.06-0.19,0.17-0.33,0.33-0.42
			c0.16-0.09,0.34-0.11,0.53-0.05c0.11,0.04,0.21,0.09,0.28,0.15c0.71,0.63,1.52,1.11,2.43,1.44l1.1-3.54
			c-0.66-0.41-1.18-0.79-1.57-1.15c-0.48-0.42-0.8-0.89-0.96-1.4c-0.16-0.51-0.15-1.04,0.02-1.59c0.17-0.54,0.46-1,0.87-1.38
			c0.43-0.39,0.95-0.65,1.57-0.77s1.29-0.11,2.01,0.05l0.33-1.07c0.04-0.13,0.12-0.24,0.25-0.31s0.25-0.08,0.39-0.04
			c0.13,0.04,0.24,0.13,0.3,0.26c0.07,0.13,0.08,0.26,0.04,0.4l-0.33,1.06c1,0.37,1.84,0.82,2.53,1.35
			c0.27,0.21,0.35,0.47,0.25,0.78c-0.05,0.17-0.16,0.3-0.33,0.4s-0.34,0.12-0.52,0.07c-0.07-0.02-0.15-0.07-0.23-0.14
			c-0.61-0.46-1.31-0.83-2.12-1.12l-1.14,3.67c0.65,0.38,1.21,0.77,1.67,1.15c0.47,0.4,0.79,0.85,0.97,1.37
			c0.18,0.52,0.17,1.1-0.03,1.74C69.25,62.5,68.95,62.96,68.52,63.32z M64.56,56.03c0.24,0.35,0.69,0.73,1.34,1.13l1.05-3.39
			c-0.67-0.11-1.23-0.06-1.68,0.13c-0.45,0.19-0.74,0.51-0.88,0.96C64.27,55.29,64.32,55.68,64.56,56.03z M68.02,61.42
			c0.12-0.37,0.04-0.73-0.23-1.06c-0.27-0.33-0.75-0.72-1.45-1.17l-1.03,3.31C66.79,62.84,67.69,62.48,68.02,61.42z"/>
	</g>
	<circle class="st0" cx="31.15" cy="39.15" r="14.98"/>
	<g>
		<path class="st1" d="M35.17,41.82c-0.16,0.45-0.44,0.85-0.86,1.2c-0.41,0.35-0.92,0.62-1.51,0.81l0.24,0.93
			c0.03,0.12,0.02,0.22-0.04,0.32c-0.06,0.1-0.15,0.17-0.28,0.2c-0.12,0.03-0.22,0.02-0.32-0.04c-0.1-0.05-0.17-0.14-0.2-0.27
			l-0.24-0.93c-0.96,0.18-1.91,0.21-2.84,0.07c-0.12-0.02-0.23-0.07-0.33-0.16c-0.1-0.09-0.17-0.19-0.2-0.3
			c-0.04-0.16-0.02-0.31,0.05-0.45s0.2-0.23,0.36-0.27c0.1-0.03,0.19-0.03,0.27-0.01c0.79,0.14,1.59,0.12,2.39-0.05l-0.79-3.04
			c-0.66,0-1.2-0.04-1.64-0.13c-0.54-0.09-0.97-0.28-1.32-0.58s-0.58-0.68-0.7-1.15c-0.12-0.46-0.12-0.92,0.01-1.38
			c0.13-0.47,0.4-0.89,0.78-1.26s0.88-0.66,1.47-0.87l-0.24-0.92c-0.03-0.12-0.02-0.23,0.04-0.33s0.14-0.17,0.26-0.2
			c0.12-0.03,0.23-0.01,0.33,0.05c0.11,0.06,0.17,0.15,0.2,0.27l0.24,0.91c0.88-0.18,1.69-0.24,2.42-0.16
			c0.28,0.03,0.46,0.18,0.53,0.45c0.04,0.14,0.02,0.29-0.06,0.44s-0.19,0.24-0.34,0.28c-0.06,0.02-0.14,0.02-0.23,0
			c-0.64-0.06-1.32-0.01-2.03,0.14l0.82,3.15c0.64-0.01,1.21,0.01,1.72,0.08c0.51,0.08,0.95,0.26,1.31,0.55s0.61,0.71,0.76,1.26
			C35.33,40.9,35.32,41.36,35.17,41.82z M29.07,38.34c0.33,0.14,0.82,0.21,1.47,0.22l-0.76-2.91c-0.53,0.22-0.91,0.5-1.15,0.84
			c-0.24,0.34-0.3,0.7-0.2,1.08C28.52,37.94,28.74,38.19,29.07,38.34z M33.96,40.67c-0.08-0.32-0.29-0.54-0.63-0.66
			s-0.86-0.18-1.57-0.19l0.74,2.84C33.71,42.25,34.2,41.58,33.96,40.67z"/>
	</g>
</g>
</svg>
