<?xml version="1.0" encoding="utf-8"?>
<!-- Generator: Adobe Illustrator 25.4.1, SVG Export Plug-In . SVG Version: 6.00 Build 0)  -->
<svg version="1.1" id="圖層_1" xmlns="http://www.w3.org/2000/svg" xmlns:xlink="http://www.w3.org/1999/xlink" x="0px" y="0px"
	 viewBox="0 0 100 100" style="enable-background:new 0 0 100 100;" xml:space="preserve">
<style type="text/css">
	.st0{fill:none;stroke:#29ABE2;stroke-width:1.2;stroke-linecap:round;stroke-miterlimit:10;}
	.st1{fill:#29ABE2;}
</style>
<g>
	<path class="st0" d="M82.06,50c0,9.42-4.07,17.91-10.55,23.78c-5.69,5.13-13.24,8.27-21.52,8.27s-15.82-3.14-21.51-8.27
		C22.01,67.91,17.94,59.42,17.94,50c0-17.71,14.36-32.05,32.05-32.05C67.7,17.95,82.06,32.29,82.06,50z"/>
	<path class="st0" d="M49.96,51.38c5.45,0,9.87-4.42,9.87-9.87s-4.42-9.87-9.87-9.87c-5.45,0-9.87,4.42-9.87,9.87
		S44.51,51.38,49.96,51.38z"/>
	<path class="st0" d="M71.52,73.78c-5.69,5.13-13.24,8.27-21.52,8.27s-15.82-3.14-21.51-8.27c1.23-10.78,10.39-19.17,21.51-19.17
		C61.12,54.61,70.29,63.01,71.52,73.78z"/>
</g>
<rect x="62.02" y="-35.37" class="st1" width="20.16" height="20.16"/>
</svg>
