<?xml version="1.0" encoding="utf-8"?>
<!-- Generator: Adobe Illustrator 25.4.1, SVG Export Plug-In . SVG Version: 6.00 Build 0)  -->
<svg version="1.1" id="圖層_1" xmlns="http://www.w3.org/2000/svg" xmlns:xlink="http://www.w3.org/1999/xlink" x="0px" y="0px"
	 viewBox="0 0 100 100" style="enable-background:new 0 0 100 100;" xml:space="preserve">
<style type="text/css">
	.st0{fill:none;stroke:#4C4C4D;stroke-width:1.2;stroke-linecap:round;stroke-miterlimit:10;}
</style>
<g>
	<g>
		<polyline class="st0" points="38.02,46.48 45.16,55.96 57.92,36.39 		"/>
		<path class="st0" d="M55.03,71.33c-3.01,2.06-6.16,3.87-9.44,5.48c-0.24,0.12-0.65,0.13-0.89,0.01
			c-5.27-2.63-10.29-5.65-14.72-9.56c-2.64-2.32-5.05-4.86-6.6-8.08c-0.77-1.6-1.22-3.28-1.22-5.06c-0.01-8.45,0-16.9,0-25.34
			c0-0.12,0-0.24,0-0.43c0.67-0.2,1.33-0.4,2-0.6c6.8-2.04,13.59-4.09,20.39-6.11c0.33-0.1,0.74-0.13,1.07-0.03
			c7.35,2.18,14.7,4.39,22.05,6.59c0.14,0.04,0.27,0.1,0.47,0.17c0,0.28,0,0.53,0,0.77c0,7.95-0.06,15.91,0.03,23.86
			c0.01,0.56-0.02,1.1-0.07,1.63"/>
	</g>
	<g>
		<g>
			<path class="st0" d="M70.61,77.51c-1.43,0.61-3.01,0.95-4.67,0.95c-6.58,0-11.91-5.33-11.91-11.91c0-6.58,5.33-11.91,11.91-11.91
				c3.09,0,5.91,1.18,8.02,3.11"/>
		</g>
		<polyline class="st0" points="65.94,59.74 65.94,66.54 69.75,69.48 		"/>
		<polyline class="st0" points="73.84,54.38 74.47,58.3 70.66,57.97 		"/>
		<path class="st0" d="M76.16,60.43c1.07,1.79,1.69,3.88,1.69,6.12c0,3.99-1.97,7.53-4.99,9.69"/>
	</g>
</g>
</svg>
